<?xml version="1.0" standalone="no"?><!DOCTYPE svg PUBLIC "-//W3C//DTD SVG 1.1//EN" "http://www.w3.org/Graphics/SVG/1.1/DTD/svg11.dtd"><svg t="1671790226005" class="icon" viewBox="0 0 1024 1024" version="1.1" xmlns="http://www.w3.org/2000/svg" p-id="29286" xmlns:xlink="http://www.w3.org/1999/xlink" width="200" height="200"><path d="M510.91 884.78c-205.88 0-372.78-166.9-372.78-372.78s166.9-372.78 372.78-372.78S883.69 306.12 883.69 512s-166.9 372.78-372.78 372.78z" fill="#A4D4FF" p-id="29287"></path><path d="M514.59 383.77c-26.84-15.66-59.27-15.66-86.11 0-26.84 15.66-42.87 43.24-42.87 74.56V583.2c0 30.94 16.03 58.9 42.87 74.56 13.42 7.83 28.33 11.56 42.87 11.56 14.91 0 29.45-3.73 42.87-11.56l108.11-62.25c26.84-15.66 42.87-43.24 42.87-74.56 0.75-31.31-15.28-59.27-42.5-74.93l-108.11-62.25z" fill="#2B8CF7" p-id="29288"></path></svg>