<svg t="1621394760547" class="icon" viewBox="0 0 1024 1024" version="1.1" xmlns="http://www.w3.org/2000/svg" p-id="1565" xmlns:xlink="http://www.w3.org/1999/xlink" width="200" height="200"><defs><style type="text/css"></style></defs><path d="M512 0a38.4 38.4 0 0 0-38.4 38.4V192h76.8V38.4A38.4 38.4 0 0 0 512 0z" fill="#25467A" p-id="1566"></path><path d="M512 1024C215.325714 1024 0 824.822857 0 550.4 0 270.48 224.902857 51.2 512 51.2s512 219.28 512 499.2C1024 824.822857 808.674286 1024 512 1024z" fill="#25467A" p-id="1567"></path><path d="M972.8 550.4c0 254.468571-206.331429 422.4-460.8 422.4S51.2 804.868571 51.2 550.4c0-170.365714 92.411429-313.348571 229.942857-389.257143 67.908571-37.622857 146.765714-58.742857 230.857143-58.742857s162.948571 21.12 230.857143 58.754286c137.531429 75.897143 229.942857 218.88 229.942857 389.245714z" fill="#FF5C49" p-id="1568"></path><path d="M972.8 550.4c0 254.468571-206.331429 422.4-460.8 422.4-211.074286 0-388.994286-115.588571-443.52-300.16A516.171429 516.171429 0 0 0 416 806.4c262.651429 0 479.611429-195.2 513.668571-448.514286 27.645714 57.725714 43.131429 122.88 43.131429 192.514286z" fill="#F55846" p-id="1569"></path><path d="M768 217.6q-10.08 9.874286-89.6-51.2c-3.337143 26.285714-19.428571 47.222857-38.4 51.2-26.114286 5.485714-61.714286-20.491429-64-64a67.085714 67.085714 0 0 1-128 0c-2.285714 43.508571-37.885714 69.485714-64 64-18.937143-3.977143-35.062857-24.971429-38.4-51.2Q266.091429 227.428571 256 217.6q-7.691429-7.542857 25.142857-56.457143c67.908571-37.622857 146.765714-58.742857 230.857143-58.742857s162.948571 21.12 230.857143 58.754286q32.834286 48.914286 25.142857 56.445714z" fill="#34BC6E" p-id="1570"></path><path d="M512 550.4a64.068571 64.068571 0 0 1-64-64 12.8 12.8 0 1 1 25.6 0 38.4 38.4 0 0 0 76.8 0 12.8 12.8 0 1 1 25.6 0 64.068571 64.068571 0 0 1-64 64z" fill="#25467A" p-id="1571"></path><path d="M384 384m-38.4 0a38.4 38.4 0 1 0 76.8 0 38.4 38.4 0 1 0-76.8 0Z" fill="#25467A" p-id="1572"></path><path d="M640 384m-38.4 0a38.4 38.4 0 1 0 76.8 0 38.4 38.4 0 1 0-76.8 0Z" fill="#25467A" p-id="1573"></path><path d="M332.8 448h-51.2a25.6 25.6 0 1 0 0 51.2h51.2a25.6 25.6 0 1 0 0-51.2zM742.4 448h-51.2a25.6 25.6 0 1 0 0 51.2h51.2a25.6 25.6 0 0 0 0-51.2z" fill="#FCCEC7" p-id="1574"></path></svg>