<?xml version="1.0" standalone="no"?><!DOCTYPE svg PUBLIC "-//W3C//DTD SVG 1.1//EN" "http://www.w3.org/Graphics/SVG/1.1/DTD/svg11.dtd"><svg t="1671616405569" class="icon" viewBox="0 0 1024 1024" version="1.1" xmlns="http://www.w3.org/2000/svg" p-id="7600" xmlns:xlink="http://www.w3.org/1999/xlink" width="200" height="200"><path d="M669.4912 688.0256A211.2512 211.2512 0 0 1 880.64 476.7744v-98.5088a107.9296 107.9296 0 0 0-107.8272-108.032H273.3056a107.9296 107.9296 0 0 0-108.032 108.032v365.8752a107.9296 107.9296 0 0 0 108.032 107.9296H747.52a210.8416 210.8416 0 0 1-78.0288-164.0448z" fill="#FF7E00" p-id="7601"></path><path d="M646.656 270.2336l41.6768-71.68a29.696 29.696 0 0 0-9.1136-38.5024 27.9552 27.9552 0 0 0-37.9904 11.3664L583.68 270.2336H462.2336l-57.2416-99.1232a28.0576 28.0576 0 0 0-37.9904-11.3664 29.4912 29.4912 0 0 0-9.1136 38.6048l41.5744 71.68" fill="#FF7E00" p-id="7602"></path><path d="M458.0352 442.9824l202.3424 118.0672a17.7152 17.7152 0 0 1 0 30.72L458.0352 709.7344a17.7152 17.7152 0 0 1-26.624-15.2576V458.24a17.7152 17.7152 0 0 1 26.624-15.2576z" fill="#FFFFFF" p-id="7603"></path><path d="M880.64 744.1408V476.7744a211.2512 211.2512 0 0 0-133.12 375.296h25.1904A107.9296 107.9296 0 0 0 880.64 744.1408z" fill="#FF7E00" p-id="7604"></path><path d="M880.64 744.1408V476.7744a211.2512 211.2512 0 0 0-133.12 375.296h25.1904A107.9296 107.9296 0 0 0 880.64 744.1408z" fill="#FD973F" p-id="7605"></path></svg>